<svg width="100%" viewBox="0 0 680 820" xmlns="http://www.w3.org/2000/svg" style="background:#ffffff;font-family:system-ui,-apple-system,sans-serif">
<defs>
<marker id="arrow" viewBox="0 0 10 10" refX="8" refY="5" markerWidth="6" markerHeight="6" orient="auto-start-reverse">
<path d="M2 1L8 5L2 9" fill="none" stroke="#888780" stroke-width="1.5" stroke-linecap="round" stroke-linejoin="round"/>
</marker>
<marker id="arrow-green" viewBox="0 0 10 10" refX="8" refY="5" markerWidth="6" markerHeight="6" orient="auto-start-reverse">
<path d="M2 1L8 5L2 9" fill="none" stroke="#1D9E75" stroke-width="1.5" stroke-linecap="round" stroke-linejoin="round"/>
</marker>
<marker id="arrow-purple" viewBox="0 0 10 10" refX="8" refY="5" markerWidth="6" markerHeight="6" orient="auto-start-reverse">
<path d="M2 1L8 5L2 9" fill="none" stroke="#534AB7" stroke-width="1.5" stroke-linecap="round" stroke-linejoin="round"/>
</marker>
</defs>

<!-- Title -->
<text x="340" y="28" text-anchor="middle" font-size="15" font-weight="600" fill="#2C2C2A">Invoice pipeline — system architecture v2</text>

<!-- ── SOURCE ── -->
<text x="30" y="76" font-size="10" fill="#888780" text-anchor="middle">Source</text>
<rect x="180" y="55" width="320" height="50" rx="10" fill="#E6F1FB" stroke="#185FA5" stroke-width="0.5"/>
<text x="340" y="75" text-anchor="middle" font-size="13" font-weight="600" fill="#0C447C">QuickBooks Online API</text>
<text x="340" y="93" text-anchor="middle" font-size="11" fill="#185FA5">OAuth 2.0 · invoices · line items · sandbox</text>

<!-- Webhook arrow LEFT (QB → Render) -->
<path d="M180 80 L100 80 L100 280 L138 280" fill="none" stroke="#D85A30" stroke-width="1.5" stroke-dasharray="5 3" marker-end="url(#arrow)"/>
<text x="56" y="192" font-size="10" fill="#D85A30" text-anchor="middle">webhook</text>
<text x="56" y="204" font-size="10" fill="#D85A30" text-anchor="middle">event</text>

<!-- Arrow DOWN QB → Pipeline -->
<line x1="340" y1="105" x2="340" y2="148" stroke="#378ADD" stroke-width="1.5" marker-end="url(#arrow)"/>
<text x="358" y="130" font-size="10" fill="#888780">scheduled</text>

<!-- ── INGEST (Render) ── -->
<text x="30" y="190" font-size="10" fill="#888780" text-anchor="middle">Ingest</text>
<rect x="140" y="148" width="400" height="95" rx="10" fill="#E1F5EE" stroke="#0F6E56" stroke-width="0.5"/>
<text x="340" y="170" text-anchor="middle" font-size="13" font-weight="600" fill="#085041">Render — Python webhook + pipeline</text>

<!-- Sub-boxes inside ingest -->
<rect x="158" y="182" width="88" height="28" rx="6" fill="#9FE1CB" stroke="#0F6E56" stroke-width="0.5"/>
<text x="202" y="196" text-anchor="middle" font-size="10" fill="#04342C">OAuth + refresh</text>

<rect x="254" y="182" width="88" height="28" rx="6" fill="#9FE1CB" stroke="#0F6E56" stroke-width="0.5"/>
<text x="298" y="196" text-anchor="middle" font-size="10" fill="#04342C">paginate + fetch</text>

<rect x="350" y="182" width="88" height="28" rx="6" fill="#9FE1CB" stroke="#0F6E56" stroke-width="0.5"/>
<text x="394" y="196" text-anchor="middle" font-size="10" fill="#04342C">transform</text>

<rect x="446" y="182" width="76" height="28" rx="6" fill="#9FE1CB" stroke="#0F6E56" stroke-width="0.5"/>
<text x="484" y="196" text-anchor="middle" font-size="10" fill="#04342C">validate</text>

<!-- Webhook endpoint badge -->
<rect x="158" y="218" width="364" height="16" rx="4" fill="rgba(216,90,48,0.1)" stroke="#D85A30" stroke-width="0.5"/>
<text x="340" y="229" text-anchor="middle" font-size="9" fill="#993C1D">POST /webhook/quickbooks · HMAC-SHA256 verified · background task</text>

<!-- Arrow DOWN Ingest → Store -->
<line x1="340" y1="243" x2="340" y2="286" stroke="#1D9E75" stroke-width="1.5" marker-end="url(#arrow-green)"/>
<text x="358" y="268" font-size="10" fill="#888780">upsert</text>

<!-- ── STORE ── -->
<text x="30" y="320" font-size="10" fill="#888780" text-anchor="middle">Store</text>
<rect x="140" y="286" width="400" height="50" rx="10" fill="#EEEDFE" stroke="#534AB7" stroke-width="0.5"/>
<text x="340" y="306" text-anchor="middle" font-size="13" font-weight="600" fill="#3C3489">Supabase — Postgres + Realtime</text>
<text x="340" y="324" text-anchor="middle" font-size="11" fill="#534AB7">RLS · triggers · SHA-256 audit · soft deletes · 6 tables</text>

<!-- Table boxes row -->
<rect x="55" y="360" width="96" height="42" rx="8" fill="#EEEDFE" stroke="#534AB7" stroke-width="0.5"/>
<text x="103" y="377" text-anchor="middle" font-size="11" font-weight="600" fill="#3C3489">invoices</text>
<text x="103" y="393" text-anchor="middle" font-size="9" fill="#534AB7">31 records</text>

<rect x="161" y="360" width="96" height="42" rx="8" fill="#EEEDFE" stroke="#534AB7" stroke-width="0.5"/>
<text x="209" y="377" text-anchor="middle" font-size="11" font-weight="600" fill="#3C3489">line_items</text>
<text x="209" y="393" text-anchor="middle" font-size="9" fill="#534AB7">60 records</text>

<rect x="267" y="360" width="96" height="42" rx="8" fill="#FAEEDA" stroke="#854F0B" stroke-width="0.5"/>
<text x="315" y="377" text-anchor="middle" font-size="11" font-weight="600" fill="#633806">sync_runs</text>
<text x="315" y="393" text-anchor="middle" font-size="9" fill="#854F0B">observability</text>

<rect x="373" y="360" width="96" height="42" rx="8" fill="#FAEEDA" stroke="#854F0B" stroke-width="0.5"/>
<text x="421" y="377" text-anchor="middle" font-size="11" font-weight="600" fill="#633806">watermarks</text>
<text x="421" y="393" text-anchor="middle" font-size="9" fill="#854F0B">incremental sync</text>

<rect x="479" y="360" width="96" height="42" rx="8" fill="#FCEBEB" stroke="#A32D2D" stroke-width="0.5"/>
<text x="527" y="377" text-anchor="middle" font-size="11" font-weight="600" fill="#791F1F">audit_log</text>
<text x="527" y="393" text-anchor="middle" font-size="9" fill="#A32D2D">immutable</text>

<rect x="585" y="360" width="80" height="42" rx="8" fill="#FCEBEB" stroke="#A32D2D" stroke-width="0.5"/>
<text x="625" y="377" text-anchor="middle" font-size="11" font-weight="600" fill="#791F1F">failed</text>
<text x="625" y="393" text-anchor="middle" font-size="9" fill="#A32D2D">DLQ</text>

<!-- Connectors DB → tables -->
<line x1="200" y1="336" x2="103" y2="360" stroke="#CECBF6" stroke-width="0.5"/>
<line x1="250" y1="336" x2="209" y2="360" stroke="#CECBF6" stroke-width="0.5"/>
<line x1="310" y1="336" x2="315" y2="360" stroke="#FAC775" stroke-width="0.5"/>
<line x1="380" y1="336" x2="421" y2="360" stroke="#FAC775" stroke-width="0.5"/>
<line x1="460" y1="336" x2="527" y2="360" stroke="#F7C1C1" stroke-width="0.5"/>
<line x1="510" y1="336" x2="625" y2="360" stroke="#F7C1C1" stroke-width="0.5"/>

<!-- Arrow DOWN Store → Serve -->
<line x1="340" y1="402" x2="340" y2="448" stroke="#7F77DD" stroke-width="1.5" marker-end="url(#arrow-purple)"/>
<text x="358" y="428" font-size="10" fill="#888780">realtime ws</text>

<!-- ── SERVE ── -->
<text x="30" y="480" font-size="10" fill="#888780" text-anchor="middle">Serve</text>
<rect x="140" y="448" width="400" height="50" rx="10" fill="#FAECE7" stroke="#993C1D" stroke-width="0.5"/>
<text x="340" y="468" text-anchor="middle" font-size="13" font-weight="600" fill="#712B13">Next.js dashboard — Vercel</text>
<text x="340" y="486" text-anchor="middle" font-size="11" fill="#993C1D">TypeScript · Tailwind · Supabase Realtime client</text>

<!-- Dashboard features -->
<rect x="148" y="516" width="82" height="26" rx="6" fill="#F5C4B3" stroke="#993C1D" stroke-width="0.5"/>
<text x="189" y="529" text-anchor="middle" font-size="10" fill="#4A1B0C">summary stats</text>

<rect x="238" y="516" width="82" height="26" rx="6" fill="#F5C4B3" stroke="#993C1D" stroke-width="0.5"/>
<text x="279" y="529" text-anchor="middle" font-size="10" fill="#4A1B0C">invoice table</text>

<rect x="328" y="516" width="82" height="26" rx="6" fill="#F5C4B3" stroke="#993C1D" stroke-width="0.5"/>
<text x="369" y="529" text-anchor="middle" font-size="10" fill="#4A1B0C">aging buckets</text>

<rect x="418" y="516" width="82" height="26" rx="6" fill="#F5C4B3" stroke="#993C1D" stroke-width="0.5"/>
<text x="459" y="529" text-anchor="middle" font-size="10" fill="#4A1B0C">top debtors</text>

<!-- Connector lines dashboard → features -->
<line x1="220" y1="498" x2="189" y2="516" stroke="#F5C4B3" stroke-width="0.5"/>
<line x1="280" y1="498" x2="279" y2="516" stroke="#F5C4B3" stroke-width="0.5"/>
<line x1="360" y1="498" x2="369" y2="516" stroke="#F5C4B3" stroke-width="0.5"/>
<line x1="440" y1="498" x2="459" y2="516" stroke="#F5C4B3" stroke-width="0.5"/>

<!-- ── LEGEND ── -->
<rect x="55" y="566" width="570" height="215" rx="10" fill="#F1EFE8" stroke="#D3D1C7" stroke-width="0.5"/>
<text x="340" y="585" text-anchor="middle" font-size="12" font-weight="600" fill="#2C2C2A">key design decisions</text>

<!-- Legend items -->
<rect x="75" y="597" width="10" height="10" rx="2" fill="#E6F1FB" stroke="#185FA5" stroke-width="0.5"/>
<text x="92" y="607" font-size="11" fill="#444441">Webhook-driven — QuickBooks fires event → Render receives → pipeline triggers instantly</text>

<rect x="75" y="618" width="10" height="10" rx="2" fill="#E1F5EE" stroke="#0F6E56" stroke-width="0.5"/>
<text x="92" y="628" font-size="11" fill="#444441">Incremental sync via watermark — only changed records fetched, never full reload</text>

<rect x="75" y="639" width="10" height="10" rx="2" fill="#E1F5EE" stroke="#0F6E56" stroke-width="0.5"/>
<text x="92" y="649" font-size="11" fill="#444441">Exponential backoff with jitter + Retry-After header — production-grade API resilience</text>

<rect x="75" y="660" width="10" height="10" rx="2" fill="#EEEDFE" stroke="#534AB7" stroke-width="0.5"/>
<text x="92" y="670" font-size="11" fill="#444441">UPSERT with idempotency — safe to run multiple times, no duplicates ever</text>

<rect x="75" y="681" width="10" height="10" rx="2" fill="#EEEDFE" stroke="#534AB7" stroke-width="0.5"/>
<text x="92" y="691" font-size="11" fill="#444441">RLS on all 6 tables — service role for pipeline, anon key for dashboard, anon blocked</text>

<rect x="75" y="702" width="10" height="10" rx="2" fill="#FCEBEB" stroke="#A32D2D" stroke-width="0.5"/>
<text x="92" y="712" font-size="11" fill="#444441">Immutable audit log — SHA-256 checksums, TRUNCATE revoked, triggers block mutation</text>

<rect x="75" y="723" width="10" height="10" rx="2" fill="#FAECE7" stroke="#993C1D" stroke-width="0.5"/>
<text x="92" y="733" font-size="11" fill="#444441">Realtime dashboard — Supabase websocket subscription, updates in &lt;5s end-to-end</text>

<rect x="75" y="744" width="10" height="10" rx="2" fill="#FAEEDA" stroke="#854F0B" stroke-width="0.5"/>
<text x="92" y="754" font-size="11" fill="#444441">Full observability — sync_runs table tracks every execution, watermark, duration, errors</text>
</svg>
