<svg width="100%" viewBox="0 0 680 740" xmlns="http://www.w3.org/2000/svg" style="background:#ffffff;font-family:system-ui,-apple-system,sans-serif">
<defs>
<marker id="arrow" viewBox="0 0 10 10" refX="8" refY="5" markerWidth="6" markerHeight="6" orient="auto-start-reverse">
<path d="M2 1L8 5L2 9" fill="none" stroke="#888780" stroke-width="1.5" stroke-linecap="round" stroke-linejoin="round"/>
</marker>
</defs>

<!-- Title -->
<text x="340" y="32" text-anchor="middle" dominant-baseline="central" font-size="15" font-weight="600" fill="#2C2C2A">Invoice pipeline — system architecture</text>

<!-- ── QuickBooks ── -->
<rect x="200" y="58" width="280" height="56" rx="10" fill="#E6F1FB" stroke="#185FA5" stroke-width="0.5"/>
<text x="340" y="78" text-anchor="middle" dominant-baseline="central" font-size="13" font-weight="600" fill="#0C447C">QuickBooks Online API</text>
<text x="340" y="97" text-anchor="middle" dominant-baseline="central" font-size="11" fill="#185FA5">OAuth 2.0 · invoices · line items · sandbox</text>
<text x="110" y="87" text-anchor="middle" font-size="11" fill="#888780">Source</text>

<!-- Arrow 1 -->
<line x1="340" y1="114" x2="340" y2="155" stroke="#378ADD" stroke-width="1.5" marker-end="url(#arrow)"/>
<text x="358" y="138" font-size="11" fill="#888780">fetch</text>

<!-- ── Pipeline ── -->
<rect x="140" y="155" width="400" height="100" rx="10" fill="#E1F5EE" stroke="#0F6E56" stroke-width="0.5"/>
<text x="340" y="178" text-anchor="middle" dominant-baseline="central" font-size="13" font-weight="600" fill="#085041">Python ingestion pipeline</text>

<rect x="158" y="193" width="88" height="32" rx="6" fill="#9FE1CB" stroke="#0F6E56" stroke-width="0.5"/>
<text x="202" y="209" text-anchor="middle" dominant-baseline="central" font-size="10" fill="#04342C">OAuth + refresh</text>

<rect x="256" y="193" width="88" height="32" rx="6" fill="#9FE1CB" stroke="#0F6E56" stroke-width="0.5"/>
<text x="300" y="209" text-anchor="middle" dominant-baseline="central" font-size="10" fill="#04342C">paginate + fetch</text>

<rect x="354" y="193" width="88" height="32" rx="6" fill="#9FE1CB" stroke="#0F6E56" stroke-width="0.5"/>
<text x="398" y="209" text-anchor="middle" dominant-baseline="central" font-size="10" fill="#04342C">transform</text>

<rect x="452" y="193" width="72" height="32" rx="6" fill="#9FE1CB" stroke="#0F6E56" stroke-width="0.5"/>
<text x="488" y="209" text-anchor="middle" dominant-baseline="central" font-size="10" fill="#04342C">validate</text>
<text x="110" y="207" text-anchor="middle" font-size="11" fill="#888780">Ingest</text>

<!-- Arrow 2 -->
<line x1="340" y1="255" x2="340" y2="296" stroke="#1D9E75" stroke-width="1.5" marker-end="url(#arrow)"/>
<text x="358" y="279" font-size="11" fill="#888780">upsert</text>

<!-- ── Supabase ── -->
<rect x="140" y="296" width="400" height="56" rx="10" fill="#EEEDFE" stroke="#534AB7" stroke-width="0.5"/>
<text x="340" y="316" text-anchor="middle" dominant-baseline="central" font-size="13" font-weight="600" fill="#3C3489">Supabase — Postgres + Realtime</text>
<text x="340" y="335" text-anchor="middle" dominant-baseline="central" font-size="11" fill="#534AB7">RLS · triggers · SHA-256 audit · soft deletes</text>
<text x="110" y="325" text-anchor="middle" font-size="11" fill="#888780">Store</text>

<!-- Table boxes -->
<rect x="65" y="375" width="108" height="44" rx="8" fill="#EEEDFE" stroke="#534AB7" stroke-width="0.5"/>
<text x="119" y="393" text-anchor="middle" dominant-baseline="central" font-size="12" font-weight="600" fill="#3C3489">invoices</text>
<text x="119" y="410" text-anchor="middle" dominant-baseline="central" font-size="10" fill="#534AB7">31 records</text>

<rect x="183" y="375" width="108" height="44" rx="8" fill="#EEEDFE" stroke="#534AB7" stroke-width="0.5"/>
<text x="237" y="393" text-anchor="middle" dominant-baseline="central" font-size="12" font-weight="600" fill="#3C3489">line_items</text>
<text x="237" y="410" text-anchor="middle" dominant-baseline="central" font-size="10" fill="#534AB7">60 records</text>

<rect x="301" y="375" width="108" height="44" rx="8" fill="#FAEEDA" stroke="#854F0B" stroke-width="0.5"/>
<text x="355" y="393" text-anchor="middle" dominant-baseline="central" font-size="12" font-weight="600" fill="#633806">sync_runs</text>
<text x="355" y="410" text-anchor="middle" dominant-baseline="central" font-size="10" fill="#854F0B">observability</text>

<rect x="419" y="375" width="108" height="44" rx="8" fill="#FAEEDA" stroke="#854F0B" stroke-width="0.5"/>
<text x="473" y="393" text-anchor="middle" dominant-baseline="central" font-size="12" font-weight="600" fill="#633806">watermarks</text>
<text x="473" y="410" text-anchor="middle" dominant-baseline="central" font-size="10" fill="#854F0B">incremental sync</text>

<rect x="537" y="375" width="108" height="44" rx="8" fill="#FCEBEB" stroke="#A32D2D" stroke-width="0.5"/>
<text x="591" y="393" text-anchor="middle" dominant-baseline="central" font-size="12" font-weight="600" fill="#791F1F">audit_log</text>
<text x="591" y="410" text-anchor="middle" dominant-baseline="central" font-size="10" fill="#A32D2D">immutable</text>

<!-- Connector lines DB → tables -->
<line x1="200" y1="352" x2="119" y2="375" stroke="#CECBF6" stroke-width="0.5"/>
<line x1="260" y1="352" x2="237" y2="375" stroke="#CECBF6" stroke-width="0.5"/>
<line x1="340" y1="352" x2="355" y2="375" stroke="#FAC775" stroke-width="0.5"/>
<line x1="420" y1="352" x2="473" y2="375" stroke="#FAC775" stroke-width="0.5"/>
<line x1="480" y1="352" x2="591" y2="375" stroke="#F7C1C1" stroke-width="0.5"/>

<!-- Arrow 3 -->
<line x1="340" y1="419" x2="340" y2="460" stroke="#7F77DD" stroke-width="1.5" marker-end="url(#arrow)"/>
<text x="358" y="443" font-size="11" fill="#888780">realtime</text>
<text x="110" y="443" text-anchor="middle" font-size="11" fill="#888780">Serve</text>

<!-- ── Dashboard ── -->
<rect x="140" y="460" width="400" height="56" rx="10" fill="#FAECE7" stroke="#993C1D" stroke-width="0.5"/>
<text x="340" y="480" text-anchor="middle" dominant-baseline="central" font-size="13" font-weight="600" fill="#712B13">Next.js dashboard</text>
<text x="340" y="499" text-anchor="middle" dominant-baseline="central" font-size="11" fill="#993C1D">Tailwind · TypeScript · Supabase Realtime client</text>
<text x="110" y="489" text-anchor="middle" font-size="11" fill="#888780">Consume</text>

<!-- Dashboard feature boxes -->
<rect x="158" y="533" width="88" height="32" rx="6" fill="#F5C4B3" stroke="#993C1D" stroke-width="0.5"/>
<text x="202" y="549" text-anchor="middle" dominant-baseline="central" font-size="10" fill="#4A1B0C">summary stats</text>

<rect x="256" y="533" width="88" height="32" rx="6" fill="#F5C4B3" stroke="#993C1D" stroke-width="0.5"/>
<text x="300" y="549" text-anchor="middle" dominant-baseline="central" font-size="10" fill="#4A1B0C">invoice table</text>

<rect x="354" y="533" width="88" height="32" rx="6" fill="#F5C4B3" stroke="#993C1D" stroke-width="0.5"/>
<text x="398" y="549" text-anchor="middle" dominant-baseline="central" font-size="10" fill="#4A1B0C">overdue alerts</text>

<rect x="452" y="533" width="88" height="32" rx="6" fill="#F5C4B3" stroke="#993C1D" stroke-width="0.5"/>
<text x="496" y="549" text-anchor="middle" dominant-baseline="central" font-size="10" fill="#4A1B0C">risk tiers</text>

<!-- Connector lines dashboard → features -->
<line x1="220" y1="516" x2="202" y2="533" stroke="#F5C4B3" stroke-width="0.5"/>
<line x1="290" y1="516" x2="300" y2="533" stroke="#F5C4B3" stroke-width="0.5"/>
<line x1="390" y1="516" x2="398" y2="533" stroke="#F5C4B3" stroke-width="0.5"/>
<line x1="460" y1="516" x2="496" y2="533" stroke="#F5C4B3" stroke-width="0.5"/>

<!-- Legend -->
<rect x="65" y="600" width="550" height="122" rx="8" fill="#F1EFE8" stroke="#D3D1C7" stroke-width="0.5"/>
<text x="340" y="620" text-anchor="middle" dominant-baseline="central" font-size="12" font-weight="600" fill="#2C2C2A">key design decisions</text>

<rect x="85" y="636" width="10" height="10" rx="2" fill="#E6F1FB" stroke="#185FA5" stroke-width="0.5"/>
<text x="102" y="646" font-size="11" fill="#444441">Incremental sync via watermark — only changed records fetched</text>

<rect x="85" y="656" width="10" height="10" rx="2" fill="#E1F5EE" stroke="#0F6E56" stroke-width="0.5"/>
<text x="102" y="666" font-size="11" fill="#444441">UPSERT with idempotency — safe to run multiple times</text>

<rect x="85" y="676" width="10" height="10" rx="2" fill="#EEEDFE" stroke="#534AB7" stroke-width="0.5"/>
<text x="102" y="686" font-size="11" fill="#444441">RLS on all tables — service role for pipeline, anon for dashboard</text>

<rect x="85" y="696" width="10" height="10" rx="2" fill="#FCEBEB" stroke="#A32D2D" stroke-width="0.5"/>
<text x="102" y="706" font-size="11" fill="#444441">Immutable audit log — SHA-256 checksums, TRUNCATE revoked</text>
</svg>
